# Blender v2.91.0 OBJ File: 'deadTree.blend'
# www.blender.org
mtllib deadTree.mtl
o Cylinder
v 0.047618 0.894881 -0.135478
v 0.158014 0.050132 -0.226824
v 0.107774 0.853871 -0.133342
v 0.209400 0.050137 -0.166675
v 0.155678 0.843758 -0.095016
v 0.190088 0.050137 -0.069418
v 0.160517 0.872636 -0.021867
v 0.091689 0.050134 -0.036229
v 0.068025 0.950373 0.046080
v 0.040683 0.050134 -0.066018
v 0.009424 0.050126 -0.136275
v -0.000772 0.845378 0.001955
v 0.057683 0.050137 -0.227916
v -0.012243 0.882311 -0.092265
v -0.058875 1.936764 0.005907
v 0.016775 1.778084 0.019303
v -0.007049 2.016592 0.097774
v -0.132436 1.985762 0.094326
v -0.104440 2.495130 0.066718
v -0.058006 2.469356 0.095429
v -0.058518 2.290397 0.156559
v -0.128414 2.230376 0.153145
v -0.140277 2.136721 0.069719
v -0.172681 3.171305 0.117484
v -0.125739 3.189363 0.134069
v -0.113371 3.173908 0.175034
v -0.089427 2.355050 0.172199
v -0.215937 3.285626 0.175116
v -0.205316 3.786201 0.200493
v -0.190705 3.787237 0.231596
v -0.219552 3.785172 0.245589
v -0.234154 3.784020 0.209749
v 0.090837 1.111048 -0.014770
v -0.084445 1.508673 0.014413
v 0.257836 1.201418 0.000000
v 0.076638 1.126013 0.000000
v 0.239379 1.222286 0.011858
v 0.095872 1.105740 0.012060
v 0.239807 1.213980 -0.014688
v 0.369386 1.392750 0.000000
v -0.068826 1.528399 0.011560
v -0.144005 1.527152 -0.121291
v -0.127265 1.552013 -0.116616
v -0.061856 1.501403 -0.000200
v -0.149702 1.544659 -0.102220
v -0.200104 1.659981 -0.223156
v -0.133364 2.946999 0.174756
v -0.200059 2.938504 0.260057
v -0.157899 2.942990 0.170042
v -0.142777 2.919733 0.180125
v -0.188279 2.966077 0.257778
v -0.232310 3.019089 0.454809
v 0.092474 1.963507 0.296974
v 0.180516 2.033585 0.477294
v 0.072119 1.971232 0.303577
v 0.156364 2.046297 0.481296
v 0.064594 1.950469 0.306609
v 0.182213 2.057677 0.469221
v 0.087587 1.945578 0.309758
v 0.316785 2.236120 0.658749
v 0.002333 1.898921 0.052828
v -0.025035 1.911114 0.060180
v -0.032708 1.883197 0.070834
v -0.005330 1.871011 0.063507
v 0.024505 0.882861 -0.024662
v -0.113845 0.937005 0.023799
v 0.027488 0.899415 -0.043656
v -0.104738 0.959683 0.005922
v 0.012028 0.873510 -0.047690
v -0.094015 0.953052 0.030720
v -0.199337 1.099508 0.099709
v -0.150930 3.190156 0.150097
v -0.111522 3.170818 0.040216
v -0.130480 3.175275 0.150866
v -0.155553 3.162241 0.142339
v -0.109222 3.200367 0.045293
v -0.064292 3.302624 -0.138861
vt 0.167894 0.213404
vt 0.162851 0.001817
vt 0.178723 0.000000
vt 0.149463 0.223232
vt 0.137187 0.004752
vt 0.022896 0.756589
vt 0.035119 0.995467
vt 0.009062 0.997487
vt 0.094446 0.004729
vt 0.099734 0.216654
vt 0.112994 0.002674
vt 0.125687 0.223651
vt 0.137187 0.000000
vt 0.028884 0.399139
vt 0.035742 0.381383
vt 0.075916 0.771008
vt 0.077938 0.492844
vt 0.061039 0.783361
vt 0.152419 0.528715
vt 0.145170 0.602742
vt 0.048626 0.413597
vt 0.108665 0.520406
vt 0.094446 0.437930
vt 0.075979 0.344059
vt 0.125312 0.865922
vt 0.119571 0.559540
vt 0.077061 0.163555
vt 0.064195 0.159958
vt 0.040828 0.000000
vt 0.178237 0.839287
vt 0.178723 0.998788
vt 0.170547 1.000000
vt 0.130729 0.998506
vt 0.137187 0.834058
vt 0.224093 0.057420
vt 0.236011 0.000000
vt 0.218401 0.056127
vt 0.271111 0.047642
vt 0.264130 0.090211
vt 0.271111 0.092171
vt 0.200353 0.238414
vt 0.192735 0.271258
vt 0.193634 0.238389
vt 0.225800 0.056018
vt 0.228590 0.105041
vt 0.185867 0.277254
vt 0.185867 0.238389
vt 0.178723 0.238545
vt 0.224934 0.148188
vt 0.235945 0.105191
vt 0.218401 0.146043
vt 0.230533 0.105080
vt 0.236011 0.105191
vt 0.264130 0.002776
vt 0.270976 0.047642
vt 0.270976 0.000000
vt 0.207018 0.276687
vt 0.207018 0.238389
vt 0.200353 0.272334
vt 0.231745 0.179884
vt 0.235945 0.176661
vt 0.242954 0.265803
vt 0.237051 0.263592
vt 0.242954 0.259120
vt 0.242954 0.225346
vt 0.237090 0.259120
vt 0.235945 0.224340
vt 0.256806 0.076735
vt 0.256806 0.000000
vt 0.248920 0.051835
vt 0.256806 0.022790
vt 0.264130 0.078290
vt 0.264038 0.024096
vt 0.264130 0.000000
vt 0.251707 0.053380
vt 0.242954 0.252380
vt 0.250033 0.187931
vt 0.250033 0.253942
vt 0.185357 0.118270
vt 0.202293 0.185305
vt 0.178723 0.117032
vt 0.209864 0.061145
vt 0.209782 0.112732
vt 0.204175 0.113665
vt 0.202293 0.061461
vt 0.218401 0.000000
vt 0.261220 0.222663
vt 0.256664 0.171625
vt 0.251167 0.170706
vt 0.043271 0.782980
vt 0.048626 0.994419
vt 0.048626 0.787236
vt 0.067917 0.997144
vt 0.000000 0.779074
vt 0.094446 0.994626
vt 0.092060 0.772830
vt 0.178723 0.207113
vt 0.186555 0.233484
vt 0.212749 0.238389
vt 0.229248 0.225378
vt 0.229248 0.199041
vt 0.205330 0.185305
vt 0.190501 0.190427
vt 0.165927 0.463408
vt 0.100283 0.586701
vt 0.061916 0.536700
vt 0.064348 0.352039
vt 0.121301 0.999858
vt 0.166703 0.648122
vt 0.033146 0.000046
vt 0.166961 0.836445
vt 0.244509 0.094338
vt 0.236011 0.093787
vt 0.236488 0.084672
vt 0.244509 0.084059
vt 0.185749 0.066131
vt 0.179936 0.066782
vt 0.070265 0.000147
vt 0.077945 0.000000
vt 0.269184 0.227621
vt 0.276196 0.226875
vt 0.276196 0.270389
vt 0.248966 0.267510
vt 0.244964 0.261448
vt 0.243381 0.267510
vt 0.242954 0.187931
vt 0.200353 0.273031
vt 0.257471 0.000993
vt 0.263524 0.080410
vt 0.263524 0.104429
vt 0.256575 0.101942
vt 0.230133 0.262935
vt 0.235945 0.266068
vt 0.235945 0.258407
vt 0.276859 0.105191
vt 0.276859 0.131629
vt 0.270733 0.129079
vt 0.266448 0.155896
vt 0.270733 0.105191
vt 0.264445 0.106850
vt 0.261220 0.159161
vt 0.261220 0.105191
vt 0.253295 0.105619
vt 0.243614 0.095491
vt 0.236011 0.094338
vt 0.236014 0.102296
vt 0.243614 0.103451
vt 0.211049 0.182932
vt 0.218401 0.181317
vt 0.194436 0.000000
vt 0.202293 0.001126
vt 0.270733 0.225671
vt 0.263302 0.226875
vt 0.242671 0.140777
vt 0.251167 0.187931
vt 0.235945 0.141597
vt 0.192735 0.238389
vt 0.185867 0.276219
vt 0.192735 0.277325
vt 0.269184 0.265471
vt 0.261220 0.227758
vt 0.262700 0.265174
vt 0.258018 0.270301
vt 0.258018 0.222663
vt 0.251167 0.266854
vt 0.213535 0.267639
vt 0.207018 0.244803
vt 0.213535 0.243283
vt 0.257880 0.265662
vt 0.251167 0.105191
vt 0.229248 0.275897
vt 0.222081 0.275542
vt 0.229248 0.238389
vt 0.208581 0.238389
vt 0.269184 0.226875
vt 0.244840 0.083379
vt 0.248920 0.000000
vt 0.236011 0.057630
vt 0.243738 0.055707
vt 0.248920 0.084059
vt 0.232197 0.230091
vt 0.235945 0.179884
vt 0.235945 0.258407
vt 0.222081 0.238389
vt 0.215069 0.267370
vt 0.222081 0.267927
vt 0.256575 0.104429
vt 0.256575 0.076735
vt 0.248920 0.077529
vt 0.248966 0.261448
vt 0.242954 0.258452
vt 0.248966 0.253942
vt 0.275855 0.131629
vt 0.275855 0.161589
vt 0.270733 0.159770
vn 0.7557 0.1095 -0.6457
vn 0.9806 0.0240 0.1947
vn 0.3186 -0.0780 0.9447
vn -0.9106 -0.0821 0.4051
vn -0.8848 0.0016 -0.4660
vn 0.3835 -0.0399 0.9227
vn 0.1348 0.1468 -0.9799
vn 0.9311 0.0997 0.3509
vn -0.1460 -0.1047 0.9837
vn -0.9900 -0.1203 0.0734
vn -0.5419 0.0472 -0.8391
vn -0.9967 -0.0606 -0.0544
vn -0.3834 0.0306 -0.9231
vn 0.2966 0.1012 -0.9496
vn -0.2432 -0.0718 0.9673
vn 0.8904 0.1659 -0.4238
vn -0.7860 0.0142 -0.6181
vn 0.4812 -0.2805 -0.8305
vn 0.4775 -0.8406 -0.2559
vn 0.7256 -0.3808 -0.5732
vn 0.2478 -0.3036 0.9200
vn -0.3042 -0.9526 0.0038
vn 0.3533 -0.2060 0.9125
vn -0.9330 -0.3567 0.0487
vn -0.3333 0.4830 -0.8097
vn -0.7862 0.5860 -0.1960
vn 0.6292 -0.2879 -0.7219
vn -0.6272 0.5729 0.5277
vn 0.4685 -0.2484 0.8478
vn 0.1675 0.7474 0.6429
vn 0.2822 -0.8691 0.4063
vn -0.8875 0.3549 -0.2938
vn -0.8595 0.3353 -0.3858
vn 0.6698 0.7408 -0.0496
vn -0.1783 -0.5873 0.7895
vn 0.8790 -0.2060 -0.4301
vn 0.1443 0.8347 -0.5315
vn -0.5130 0.7762 -0.3666
vn -0.8920 0.3627 0.2697
vn -0.4604 -0.0959 0.8825
vn 0.6359 0.1283 -0.7610
vn 0.9925 0.0758 -0.0956
vn 0.5773 -0.0264 0.8161
vn 0.0490 0.1137 -0.9923
vn -0.9936 -0.0316 0.1086
vn -0.5945 0.0805 -0.8001
vn 0.0000 -1.0000 0.0000
vn 0.9731 0.1619 -0.1637
vn -0.9826 -0.0785 -0.1686
vn -0.7630 -0.1392 0.6312
vn 0.5865 0.1879 -0.7879
vn -0.5579 0.0524 -0.8282
vn 0.5857 -0.0115 0.8104
vn -0.3808 -0.1349 0.9148
vn 0.5076 0.1420 -0.8498
vn -0.8747 -0.0825 0.4776
vn 0.9930 0.1116 -0.0376
vn 0.4368 -0.0064 0.8995
vn 0.9587 0.1052 -0.2644
vn 0.7950 0.0367 0.6055
vn -0.0736 0.9973 -0.0005
vn -0.7970 0.0029 -0.6040
vn 0.4415 -0.0060 0.8973
vn 0.5618 0.0969 -0.8216
vn 0.8979 -0.3004 -0.3217
vn 0.2804 0.1430 -0.9492
vn -0.3113 0.1109 -0.9438
vn 0.9611 0.1430 -0.2362
vn -0.9237 -0.0601 0.3783
vn 0.3304 -0.4776 -0.8141
vn -0.4757 0.8373 -0.2696
vn -0.7887 -0.5518 0.2710
vn -0.7255 -0.6883 0.0000
vn -0.2497 0.3090 0.9177
vn -0.1551 0.9566 0.2469
vn 0.8698 0.3678 -0.3288
vn -0.7032 -0.6132 -0.3599
vn 0.8046 -0.1655 0.5702
vn 0.2232 -0.2620 -0.9389
vn -0.1008 0.9530 -0.2857
vn -0.2791 -0.7750 0.5670
vn -0.8953 0.3551 0.2689
vn -0.3524 -0.2480 -0.9024
vn -0.4573 0.8760 -0.1533
vn 0.2771 0.8999 -0.3367
vn 0.9012 -0.3658 -0.2326
vn -0.2709 -0.8892 0.3686
vn 0.0185 -0.4151 0.9096
vn -0.1827 -0.8725 0.4533
vn -0.5885 -0.3414 -0.7329
vn -0.7959 -0.1440 -0.5881
vn 0.5986 0.5550 0.5777
vn 0.7631 0.6254 -0.1628
vn 0.1051 -0.5005 0.8593
vn 0.4310 0.9007 0.0545
vn 0.8447 -0.4621 -0.2701
vn -0.2232 0.2787 -0.9341
vn -0.8870 -0.2278 -0.4016
vn 0.9780 -0.1069 0.1792
vn 0.9794 -0.1058 0.1721
vn 0.4908 0.7054 0.5114
vn 0.4289 -0.8967 0.1096
vn -0.9089 0.2444 -0.3379
vn -0.2036 -0.2307 0.9515
vn 0.5546 0.7775 0.2965
usemtl TreeMat
s off
f 5/1/1 4/2/1 2/3/1
f 7/4/2 6/5/2 4/2/2
f 9/6/3 8/7/3 6/8/3
f 10/9/4 12/10/4 11/11/4
f 14/12/5 13/13/5 11/11/5
f 9/6/6 21/14/6 27/15/6
f 1/16/7 15/17/7 3/18/7
f 7/4/8 17/19/8 21/20/8
f 9/6/9 27/15/9 22/21/9
f 12/10/10 18/22/10 14/12/10
f 23/23/11 19/24/11 15/17/11
f 18/22/12 28/25/12 23/26/12
f 23/23/13 24/27/13 19/24/13
f 19/24/14 24/27/14 25/28/14
f 27/15/15 31/29/15 22/21/15
f 25/30/16 29/31/16 30/32/16
f 28/25/17 32/33/17 24/34/17
f 39/35/18 40/36/18 35/37/18
f 35/38/19 38/39/19 33/40/19
f 43/41/20 44/42/20 42/43/20
f 37/44/21 38/45/21 35/37/21
f 42/46/22 44/47/22 34/48/22
f 35/37/23 40/36/23 37/44/23
f 45/49/24 46/50/24 42/51/24
f 39/35/25 33/52/25 36/53/25
f 37/54/26 40/55/26 39/56/26
f 42/57/27 46/58/27 43/59/27
f 45/49/28 34/60/28 41/61/28
f 34/62/29 44/63/29 41/64/29
f 43/65/30 46/66/30 45/67/30
f 50/68/31 52/69/31 48/70/31
f 48/71/32 52/72/32 51/73/32
f 51/73/33 49/74/33 48/71/33
f 51/75/34 52/69/34 50/68/34
f 54/76/35 60/77/35 56/78/35
f 58/79/36 60/80/36 54/81/36
f 58/82/37 53/83/37 55/84/37
f 56/85/38 60/86/38 58/82/38
f 56/87/39 55/88/39 57/89/39
f 12/90/40 10/91/40 8/7/40 9/6/40
f 3/18/41 5/92/41 2/93/41
f 5/1/42 7/4/42 4/2/42
f 7/94/43 9/6/43 6/8/43
f 2/93/44 13/95/44 1/16/44 3/18/44
f 11/11/45 12/10/45 14/12/45
f 13/95/46 14/96/46 1/16/46
f 11/97/47 13/98/47 2/99/47 4/100/47 6/101/47 8/102/47 10/103/47
f 16/104/48 17/19/48 7/4/48 5/1/48
f 14/12/49 18/22/49 23/26/49
f 12/10/50 22/105/50 18/22/50
f 15/17/51 16/106/51 5/92/51 3/18/51
f 15/17/52 1/16/52 14/96/52 23/23/52
f 9/6/53 7/94/53 21/14/53
f 12/90/54 9/6/54 22/21/54
f 19/24/55 20/107/55 16/106/55 15/17/55
f 28/25/56 18/22/56 22/105/56 31/108/56
f 17/19/57 16/104/57 20/109/57
f 27/15/58 30/110/58 31/29/58
f 25/30/59 26/111/59 17/19/59 20/109/59
f 26/111/60 30/32/60 21/20/60 17/19/60
f 31/112/61 30/113/61 29/114/61 32/115/61
f 23/26/62 28/25/62 24/34/62
f 27/15/63 21/14/63 30/110/63
f 20/107/64 19/24/64 25/28/64
f 53/116/65 58/79/65 54/81/65 59/117/65
f 25/28/66 24/27/66 29/118/66
f 24/27/67 32/119/67 29/118/67
f 26/111/68 25/30/68 30/32/68
f 28/25/69 31/108/69 32/33/69
f 39/35/70 35/37/70 33/52/70
f 37/120/71 39/121/71 36/122/71
f 45/49/72 42/51/72 34/60/72
f 33/123/73 38/124/73 36/125/73
f 37/44/74 36/53/74 38/45/74
f 43/65/75 45/67/75 41/126/75
f 43/41/76 41/127/76 44/42/76
f 48/71/77 49/74/77 50/128/77
f 51/129/78 50/130/78 47/131/78
f 49/132/79 47/133/79 50/134/79
f 51/135/80 47/136/80 49/137/80
f 59/138/81 54/139/81 56/140/81 57/141/81
f 62/142/82 63/143/82 57/89/82 55/88/82
f 63/144/83 62/145/83 61/146/83 64/147/83
f 56/85/84 58/82/84 55/84/84
f 62/148/85 55/84/85 53/83/85 61/149/85
f 64/150/86 61/151/86 53/116/86 59/117/86
f 64/152/87 59/138/87 57/141/87 63/153/87
f 70/154/88 71/155/88 66/156/88
f 66/157/89 69/158/89 65/159/89
f 68/160/90 69/161/90 66/162/90
f 66/163/91 71/164/91 68/165/91
f 70/166/92 65/167/92 67/168/92
f 68/165/93 71/164/93 70/169/93
f 70/154/94 66/156/94 65/170/94
f 68/171/95 70/172/95 67/173/95
f 65/167/96 69/174/96 67/168/96
f 68/160/97 67/175/97 69/161/97
f 75/176/98 77/177/98 73/178/98
f 73/178/99 77/177/99 76/179/99
f 76/179/100 74/180/100 73/178/100
f 76/181/101 77/182/101 75/183/101
f 73/184/102 74/185/102 75/186/102
f 76/187/103 75/188/103 72/189/103
f 74/190/104 72/191/104 75/192/104
f 76/193/105 72/194/105 74/195/105
